<?xml version="1.0" encoding="UTF-8" standalone="no"?>
<!-- Created with Inkscape (http://www.inkscape.org/) -->

<svg
   xmlns:dc="http://purl.org/dc/elements/1.1/"
   xmlns:cc="http://creativecommons.org/ns#"
   xmlns:rdf="http://www.w3.org/1999/02/22-rdf-syntax-ns#"
   xmlns:svg="http://www.w3.org/2000/svg"
   xmlns="http://www.w3.org/2000/svg"
   xmlns:sodipodi="http://sodipodi.sourceforge.net/DTD/sodipodi-0.dtd"
   xmlns:inkscape="http://www.inkscape.org/namespaces/inkscape"
   width="208.74335mm"
   height="34.030998mm"
   viewBox="0 0 208.74335 34.030999"
   version="1.1"
   id="svg8"
   inkscape:version="0.92.4 (unknown)"
   sodipodi:docname="logo-text-h.svg">
  <defs
     id="defs2" />
  <sodipodi:namedview
     id="base"
     pagecolor="#ffffff"
     bordercolor="#666666"
     borderopacity="1.0"
     inkscape:pageopacity="0.0"
     inkscape:pageshadow="2"
     inkscape:zoom="0.78738842"
     inkscape:cx="532.35833"
     inkscape:cy="148.35058"
     inkscape:document-units="mm"
     inkscape:current-layer="layer1"
     showgrid="false"
     fit-margin-top="0"
     fit-margin-left="0"
     fit-margin-right="0"
     fit-margin-bottom="0"
     inkscape:window-width="1920"
     inkscape:window-height="1018"
     inkscape:window-x="0"
     inkscape:window-y="34"
     inkscape:window-maximized="1" />
  <metadata
     id="metadata5">
    <rdf:RDF>
      <cc:Work
         rdf:about="">
        <dc:format>image/svg+xml</dc:format>
        <dc:type
           rdf:resource="http://purl.org/dc/dcmitype/StillImage" />
        <dc:title></dc:title>
      </cc:Work>
    </rdf:RDF>
  </metadata>
  <g
     inkscape:label="Layer 1"
     inkscape:groupmode="layer"
     id="layer1"
     transform="translate(-109.99114,-63.775503)">
    <g
       id="g201"
       transform="matrix(0.43350387,0,0,0.43350387,62.309555,55.407005)">
      <path
         inkscape:connector-curvature="0"
         id="path54"
         d="m 149.24198,19.304321 a 39.250998,39.250998 0 0 0 -23.87761,8.13232 h 9.11365 l 22.29838,59.064093 h 3.53518 c 1.08774,0 1.86753,0.21758 2.33888,0.652675 0.47135,0.398832 0.70693,0.94253 0.70693,1.631426 0,0.652639 -0.23558,1.196329 -0.70693,1.631423 -0.47135,0.435094 -1.25114,0.652674 -2.33888,0.652674 h -17.02273 c -1.12399,0 -1.92178,-0.21758 -2.39313,-0.652674 -0.47135,-0.435094 -0.70694,-0.978784 -0.70694,-1.631423 0,-0.688896 0.23559,-1.232594 0.70694,-1.631426 0.47135,-0.435095 1.26914,-0.652675 2.39313,-0.652675 h 8.7018 l -6.2544,-16.696655 h -30.02143 l -1.98024,5.379516 a 39.250998,39.250998 0 0 0 35.5074,22.622909 39.250998,39.250998 0 0 0 39.25083,-39.250833 39.250998,39.250998 0 0 0 -39.25083,-39.25135 z"
         style="fill:#d35f5f;stroke-width:0.30193076" />
      <path
         inkscape:connector-curvature="0"
         id="path52"
         d="m 120.39878,32.005355 a 39.250998,39.250998 0 0 0 -10.40764,26.550316 39.250998,39.250998 0 0 0 1.36271,10.198343 l 13.6064,-36.748659 z"
         style="fill:#a02c2c;stroke-width:0.30193076" />
      <path
         inkscape:connector-curvature="0"
         id="path22"
         d="m 129.69227,32.005355 -12.23698,33.230013 h 26.5405 L 131.37795,32.005355 Z"
         style="fill:#c83737;stroke-width:0.30193076" />
      <path
         d="m 162.46385,48.741847 v -8.0665 q 0,-0.87129 0.33727,-1.23667 0.33726,-0.36538 0.87129,-0.36538 0.50593,0 0.84319,0.36538 0.33726,0.36539 0.33726,1.23667 v 8.0665 l 7.673,-2.50146 q 0.53405,-0.16866 0.81509,-0.16866 0.44968,0 0.78697,0.36538 0.33727,0.33727 0.33727,0.81508 0,0.42157 -0.25297,0.73076 -0.22484,0.30915 -0.95561,0.53405 l -7.67301,2.50146 4.74996,6.52064 q 0.44969,0.64645 0.44969,1.01183 0,0.50592 -0.36539,0.87129 -0.33726,0.33726 -0.81508,0.33726 -0.61834,0 -1.20856,-0.81508 l -4.74996,-6.54875 -4.74996,6.54875 q -0.59022,0.81508 -1.18046,0.81508 -0.50593,0 -0.87129,-0.33726 -0.33727,-0.36539 -0.33727,-0.87129 0,-0.36539 0.47781,-1.01183 l 4.74995,-6.52064 -7.70111,-2.52957 q -0.70266,-0.22484 -0.95561,-0.50592 -0.22485,-0.30915 -0.22485,-0.73077 0,-0.4778 0.33727,-0.81507 0.33726,-0.36539 0.75886,-0.36539 0.30915,0 0.8432,0.16866 z"
         style="font-style:normal;font-variant:normal;font-weight:normal;font-stretch:normal;font-size:10.58333302px;line-height:1.25;font-family:'Courier New';-inkscape-font-specification:'Courier New';letter-spacing:0px;word-spacing:0px;fill:#501616;fill-opacity:1;stroke:none;stroke-width:1.43903923"
         id="path48"
         inkscape:connector-curvature="0" />
      <path
         d="m 222.57745,64.340627 q 0,3.921176 -3.51555,6.432288 -3.16786,2.260004 -7.24358,2.260004 -2.64632,0 -5.13811,-1.043082 -2.72358,-1.158976 -4.09503,-3.167848 -0.30906,-0.463595 -0.30906,-0.888566 0,-0.579465 0.44427,-1.004436 0.46359,-0.444272 1.06239,-0.444272 0.56017,0 1.12034,0.598811 0.27043,0.328379 0.84991,0.927167 2.35658,2.124788 6.06529,2.124788 2.83949,0 5.17675,-1.448708 2.68495,-1.680516 2.68495,-4.346146 0,-2.665653 -2.68495,-4.346146 -2.33726,-1.448731 -5.17675,-1.448731 -3.38033,0 -6.00734,-1.892979 -2.89743,-2.086165 -2.89743,-5.350582 0,-3.26444 2.89743,-5.350605 2.62701,-1.892979 6.00734,-1.892979 2.18274,0 4.21094,0.86922 2.24068,0.946489 3.38033,2.588383 0.32838,0.444271 0.32838,0.888543 0,0.579487 -0.46359,1.023759 -0.46359,0.424948 -1.04308,0.424948 -0.54085,0 -1.13965,-0.598787 -2.26,-2.298651 -5.27333,-2.298651 -2.1441,0 -3.92119,1.081729 -2.08615,1.255545 -2.08615,3.26444 0,2.008872 2.08615,3.264417 1.77709,1.081729 3.92119,1.081729 4.07572,0 7.24358,2.259981 3.51555,2.511113 3.51555,6.432311 z"
         style="font-style:normal;font-variant:normal;font-weight:normal;font-stretch:normal;font-size:19.88875198px;line-height:1.25;font-family:Monofur;-inkscape-font-specification:Monofur;letter-spacing:0px;word-spacing:0px;fill:#b3b3b3;fill-opacity:1;stroke:none;stroke-width:1.1589725"
         id="path25"
         inkscape:connector-curvature="0" />
      <path
         d="m 245.77622,71.545565 q 0,0.579488 -0.44427,1.043083 -0.42496,0.463571 -1.00445,0.463571 -0.44427,0 -0.84991,-0.270409 l -12.36237,-8.576399 q -0.7147,-0.482918 -0.81128,-1.043082 v 8.421859 q 0,1.448731 -1.44872,1.448731 -1.44871,0 -1.44871,-1.448731 V 45.507312 q 0,-1.448707 1.44871,-1.448707 1.44872,0 1.44872,1.448707 v 17.114175 q 0.0966,-0.560186 0.81128,-1.043081 l 12.36237,-8.5764 q 0.40564,-0.270432 0.84991,-0.270432 0.57949,0 1.00445,0.463594 0.44427,0.463595 0.44427,1.043084 0,0.71468 -0.63743,1.158952 l -10.8364,7.494693 10.8364,7.494693 q 0.63743,0.444271 0.63743,1.158975 z"
         style="font-style:normal;font-variant:normal;font-weight:normal;font-stretch:normal;font-size:19.88875198px;line-height:1.25;font-family:Monofur;-inkscape-font-specification:Monofur;letter-spacing:0px;word-spacing:0px;fill:#b3b3b3;fill-opacity:1;stroke:none;stroke-width:1.1589725"
         id="path27"
         inkscape:connector-curvature="0" />
      <path
         d="m 268.95567,67.218743 q 0,0.367002 -0.23178,0.791951 -1.33282,2.317949 -3.99846,3.689411 -2.53042,1.332815 -5.31196,1.332815 -4.34614,0 -7.49468,-2.878115 -3.26444,-2.955385 -3.26444,-7.262908 0,-4.307499 3.26444,-7.262884 3.14854,-2.878115 7.49468,-2.878115 1.58393,0 3.30307,0.560164 1.93163,0.637434 3.84393,2.028195 2.3759,1.738464 2.3759,3.303087 0,0.77265 -0.75334,1.178275 l -14.64168,7.881019 q 2.37589,2.433843 5.87212,2.433843 3.72803,0 6.02666,-2.588359 0.27043,-0.347702 0.81128,-1.062406 0.56017,-0.714704 1.19761,-0.714704 0.57948,0 1.04307,0.424972 0.46359,0.424948 0.46359,1.023759 z m -3.65076,-9.136563 q -2.35658,-2.433844 -5.89144,-2.433844 -3.12923,0 -5.44718,2.028194 -2.41452,2.124789 -2.41452,5.215367 0,1.236244 0.42496,2.356573 z"
         style="font-style:normal;font-variant:normal;font-weight:normal;font-stretch:normal;font-size:19.88875198px;line-height:1.25;font-family:Monofur;-inkscape-font-specification:Monofur;letter-spacing:0px;word-spacing:0px;fill:#b3b3b3;fill-opacity:1;stroke:none;stroke-width:1.1589725"
         id="path29"
         inkscape:connector-curvature="0" />
      <path
         d="m 315.31458,68.66745 q 0,0.405648 -0.30906,0.888543 -1.02375,1.564624 -3.05197,2.549736 -1.93161,0.92719 -3.90188,0.92719 -3.59279,0 -6.14255,-2.549736 -2.54974,-2.54976 -2.54974,-6.142556 v -8.692292 h -2.89741 q -1.44874,0 -1.44874,-1.448731 0,-1.448707 1.44874,-1.448707 h 2.89741 v -7.243585 q 0,-1.448707 1.44873,-1.448707 1.44871,0 1.44871,1.448707 v 7.243585 h 7.24358 q 1.44871,0 1.44871,1.448707 0,1.448731 -1.44871,1.448731 h -7.24358 v 8.692292 q 0,2.395197 1.69982,4.095038 1.69984,1.699816 4.09503,1.699816 1.62257,0 2.83949,-0.753327 0.57949,-0.367002 1.6612,-1.410084 0.77265,-0.753327 1.25554,-0.753327 0.59881,0 1.04308,0.444272 0.4636,0.424948 0.4636,1.004435 z"
         style="font-style:normal;font-variant:normal;font-weight:normal;font-stretch:normal;font-size:19.88875198px;line-height:1.25;font-family:Monofur;-inkscape-font-specification:Monofur;letter-spacing:0px;word-spacing:0px;fill:#b3b3b3;fill-opacity:1;stroke:none;stroke-width:1.1589725"
         id="path33"
         inkscape:connector-curvature="0" />
      <path
         d="m 330.53575,46.260639 q 0,0.907867 -0.65676,1.525978 -0.63743,0.618134 -1.5453,0.618134 -0.90786,0 -1.5646,-0.618134 -0.63745,-0.618111 -0.63745,-1.525978 0,-0.907843 0.63745,-1.5453 0.65674,-0.656734 1.5646,-0.656734 0.90787,0 1.5453,0.656734 0.65676,0.637457 0.65676,1.5453 z m 5.04153,25.323549 q 0,1.448731 -1.44873,1.448731 h -5.79486 q -1.4487,0 -1.4487,-1.448731 V 55.648336 h -4.34615 q -1.44873,0 -1.44873,-1.448732 0,-1.448707 1.44873,-1.448707 h 5.81418 q 1.42938,0 1.42938,1.448707 v 15.935877 h 4.34615 q 1.44873,0 1.44873,1.448707 z"
         style="font-style:normal;font-variant:normal;font-weight:normal;font-stretch:normal;font-size:19.88875198px;line-height:1.25;font-family:Monofur;-inkscape-font-specification:Monofur;letter-spacing:0px;word-spacing:0px;fill:#b3b3b3;fill-opacity:1;stroke:none;stroke-width:1.1589725"
         id="path35"
         inkscape:connector-curvature="0" />
      <path
         d="m 361.67348,56.710718 q 0,0.598811 -0.44427,1.062382 -0.44428,0.444272 -1.02376,0.444272 -0.40565,0 -0.94649,-0.367002 -3.10993,-2.202035 -6.25845,-2.202035 -3.32239,0 -5.91077,1.931602 -2.82017,2.105465 -2.82017,5.311959 0,3.206494 2.83949,5.311959 2.56906,1.931626 5.89145,1.931626 3.12922,0 6.25845,-2.182735 0.52154,-0.367002 0.92716,-0.367002 0.59881,0 1.04309,0.463595 0.44427,0.444272 0.44427,1.023759 0,0.560165 -0.54087,1.081706 -1.35211,1.352138 -3.78595,2.144088 -2.22139,0.734027 -4.34615,0.734027 -4.53931,0 -7.95829,-2.762222 -3.67009,-2.936062 -3.67009,-7.378801 0,-4.442715 3.67009,-7.378777 3.41898,-2.762222 7.95829,-2.762222 2.12476,0 4.34615,0.734004 2.45314,0.811296 3.80528,2.163434 0.52154,0.521518 0.52154,1.062383 z"
         style="font-style:normal;font-variant:normal;font-weight:normal;font-stretch:normal;font-size:19.88875198px;line-height:1.25;font-family:Monofur;-inkscape-font-specification:Monofur;letter-spacing:0px;word-spacing:0px;fill:#b3b3b3;fill-opacity:1;stroke:none;stroke-width:1.1589725"
         id="path37"
         inkscape:connector-curvature="0" />
      <path
         d="m 376.89465,60.709162 q 0,0.907866 -0.65676,1.564623 -0.63743,0.637435 -1.54527,0.637435 -0.90787,0 -1.56463,-0.637434 -0.63743,-0.656757 -0.63743,-1.564623 0,-0.888543 0.63743,-1.506654 0.65676,-0.637434 1.56463,-0.637434 0.90784,0 1.54527,0.637434 0.65676,0.618111 0.65676,1.506653 z"
         style="font-style:normal;font-variant:normal;font-weight:normal;font-stretch:normal;font-size:19.88875198px;line-height:1.25;font-family:Monofur;-inkscape-font-specification:Monofur;letter-spacing:0px;word-spacing:0px;fill:#000000;fill-opacity:1;stroke:none;stroke-width:1.1589725"
         id="path39"
         inkscape:connector-curvature="0" />
      <path
         d="m 408.03238,71.642158 q 0,1.390761 -1.50666,1.390761 -1.00446,0 -1.33281,-0.985136 l -2.56906,-7.707156 h -9.50359 l -2.56906,7.707156 q -0.32836,0.985136 -1.33282,0.985136 -1.50665,0 -1.50665,-1.390761 0,-0.251132 0.0965,-0.521541 l 8.61505,-25.84509 q 0.40562,-1.216922 1.4487,-1.216922 1.04309,0 1.44871,1.216922 l 8.61505,25.84509 q 0.0965,0.270409 0.0965,0.521541 z m -6.37435,-10.198969 -3.78598,-11.357922 -3.78598,11.357922 z"
         style="font-style:normal;font-variant:normal;font-weight:normal;font-stretch:normal;font-size:19.88875198px;line-height:1.25;font-family:Monofur;-inkscape-font-specification:Monofur;letter-spacing:0px;word-spacing:0px;fill:#a02c2c;fill-opacity:1;stroke:none;stroke-width:1.1589725"
         id="path41"
         inkscape:connector-curvature="0" />
      <path
         d="m 430.2267,63.857709 q 0,3.805306 -2.68495,6.490257 -2.68495,2.684953 -6.49026,2.684953 -3.80528,0 -6.49023,-2.684953 -2.68496,-2.684952 -2.68496,-6.490257 v -9.658105 q 0,-1.448707 1.44871,-1.448707 1.44873,0 1.44873,1.448707 v 9.658105 q 0,2.588383 1.83504,4.442739 1.85435,1.835033 4.44271,1.835033 2.58838,0 4.42342,-1.835033 1.85435,-1.854356 1.85435,-4.442739 v -9.658105 q 0,-1.448707 1.44873,-1.448707 1.44871,0 1.44871,1.448707 z"
         style="font-style:normal;font-variant:normal;font-weight:normal;font-stretch:normal;font-size:19.88875198px;line-height:1.25;font-family:Monofur;-inkscape-font-specification:Monofur;letter-spacing:0px;word-spacing:0px;fill:#000000;fill-opacity:1;stroke:none;stroke-width:1.1589725"
         id="path43"
         inkscape:connector-curvature="0" />
      <path
         d="m 454.39127,68.66745 q 0,0.405648 -0.30905,0.888543 -1.02376,1.564624 -3.05196,2.549736 -1.93162,0.92719 -3.90187,0.92719 -3.59282,0 -6.14256,-2.549736 -2.54976,-2.54976 -2.54976,-6.142556 v -8.692292 h -2.89741 q -1.44873,0 -1.44873,-1.448731 0,-1.448707 1.44873,-1.448707 h 2.89741 v -7.243585 q 0,-1.448707 1.44874,-1.448707 1.4487,0 1.4487,1.448707 v 7.243585 h 7.24359 q 1.44871,0 1.44871,1.448707 0,1.448731 -1.44871,1.448731 h -7.24359 v 8.692292 q 0,2.395197 1.69984,4.095038 1.69982,1.699816 4.09504,1.699816 1.62255,0 2.83947,-0.753327 0.57949,-0.367002 1.66119,-1.410084 0.77265,-0.753327 1.25557,-0.753327 0.59879,0 1.04306,0.444272 0.46359,0.424948 0.46359,1.004435 z"
         style="font-style:normal;font-variant:normal;font-weight:normal;font-stretch:normal;font-size:19.88875198px;line-height:1.25;font-family:Monofur;-inkscape-font-specification:Monofur;letter-spacing:0px;word-spacing:0px;fill:#000000;fill-opacity:1;stroke:none;stroke-width:1.1589725"
         id="path45"
         inkscape:connector-curvature="0" />
      <path
         d="m 476.58562,71.584188 q 0,1.448731 -1.44873,1.448731 -1.44871,0 -1.44871,-1.448731 V 61.44319 q 0,-2.395221 -1.69984,-4.095037 -1.69981,-1.699817 -4.09503,-1.699817 -2.3952,0 -4.09502,1.699817 -1.69984,1.699816 -1.69984,4.095037 v 10.140999 q 0,1.448731 -1.4487,1.448731 -1.44873,0 -1.44873,-1.448731 V 45.507312 q 0,-1.448707 1.44873,-1.448707 1.4487,0 1.4487,1.448707 v 9.464943 q 2.47247,-2.221358 5.79486,-2.221358 3.59282,0 6.14255,2.549736 2.54976,2.549737 2.54976,6.142556 z"
         style="font-style:normal;font-variant:normal;font-weight:normal;font-stretch:normal;font-size:19.88875198px;line-height:1.25;font-family:Monofur;-inkscape-font-specification:Monofur;letter-spacing:0px;word-spacing:0px;fill:#000000;fill-opacity:1;stroke:none;stroke-width:1.1589725"
         id="path47"
         inkscape:connector-curvature="0" />
      <path
         d="m 500.73087,62.891897 q 0,4.19163 -2.97471,7.166314 -2.97468,2.974709 -7.16631,2.974709 -4.19161,0 -7.16631,-2.974709 -2.97469,-2.974684 -2.97469,-7.166314 0,-4.191607 2.97469,-7.166314 2.9747,-2.974686 7.16631,-2.974686 4.19163,0 7.16631,2.974686 2.97471,2.974707 2.97471,7.166314 z m -2.89744,0 q 0,-2.994009 -2.12478,-5.118797 -2.12477,-2.124764 -5.1188,-2.124764 -2.99401,0 -5.1188,2.124764 -2.12476,2.124788 -2.12476,5.118797 0,2.994007 2.12476,5.118797 2.12479,2.124787 5.1188,2.124787 2.99403,0 5.1188,-2.124787 2.12478,-2.124789 2.12478,-5.118797 z"
         style="font-style:normal;font-variant:normal;font-weight:normal;font-stretch:normal;font-size:19.88875198px;line-height:1.25;font-family:Monofur;-inkscape-font-specification:Monofur;letter-spacing:0px;word-spacing:0px;fill:#000000;fill-opacity:1;stroke:none;stroke-width:1.1589725"
         id="path49"
         inkscape:connector-curvature="0" />
      <path
         d="m 523.92963,57.425421 q 0,0.598788 -0.46359,1.04306 -0.44427,0.424971 -1.04306,0.424971 -0.54087,0 -1.08173,-0.560164 -2.66563,-2.684953 -5.64031,-2.684953 -2.99404,0 -5.1188,2.124765 -2.12479,2.124788 -2.12479,5.118797 v 8.692291 q 0,1.448731 -1.44871,1.448731 -1.44873,0 -1.44873,-1.448731 V 54.199604 q 0,-1.448707 1.44873,-1.448707 1.12033,0 1.39077,1.081705 0.0774,0.347702 0.058,1.97025 2.97468,-3.051955 7.24358,-3.051955 2.20203,0 4.38477,1.004436 2.29863,1.043082 3.49622,2.762222 0.34771,0.502218 0.34771,0.907866 z"
         style="font-style:normal;font-variant:normal;font-weight:normal;font-stretch:normal;font-size:19.88875198px;line-height:1.25;font-family:Monofur;-inkscape-font-specification:Monofur;letter-spacing:0px;word-spacing:0px;fill:#000000;fill-opacity:1;stroke:none;stroke-width:1.1589725"
         id="path51"
         inkscape:connector-curvature="0" />
      <path
         d="m 539.15083,46.260639 q 0,0.907867 -0.65676,1.525978 -0.63743,0.618134 -1.5453,0.618134 -0.90787,0 -1.56462,-0.618134 -0.63744,-0.618111 -0.63744,-1.525978 0,-0.907843 0.63744,-1.5453 0.65675,-0.656734 1.56462,-0.656734 0.90787,0 1.5453,0.656734 0.65676,0.637457 0.65676,1.5453 z m 5.04153,25.323549 q 0,1.448731 -1.44874,1.448731 h -5.79485 q -1.44871,0 -1.44871,-1.448731 V 55.648336 h -4.34614 q -1.44873,0 -1.44873,-1.448732 0,-1.448707 1.44873,-1.448707 h 5.81417 q 1.42939,0 1.42939,1.448707 v 15.935877 h 4.34614 q 1.44874,0 1.44874,1.448707 z"
         style="font-style:normal;font-variant:normal;font-weight:normal;font-stretch:normal;font-size:19.88875198px;line-height:1.25;font-family:Monofur;-inkscape-font-specification:Monofur;letter-spacing:0px;word-spacing:0px;fill:#000000;fill-opacity:1;stroke:none;stroke-width:1.1589725"
         id="path53"
         inkscape:connector-curvature="0" />
      <path
         d="m 570.28853,68.66745 q 0,0.405648 -0.30905,0.888543 -1.02376,1.564624 -3.05198,2.549736 -1.9316,0.92719 -3.90188,0.92719 -3.59279,0 -6.14255,-2.549736 -2.54974,-2.54976 -2.54974,-6.142556 v -8.692292 h -2.89741 q -1.44873,0 -1.44873,-1.448731 0,-1.448707 1.44873,-1.448707 h 2.89741 v -7.243585 q 0,-1.448707 1.44873,-1.448707 1.44871,0 1.44871,1.448707 v 7.243585 h 7.24358 q 1.44871,0 1.44871,1.448707 0,1.448731 -1.44871,1.448731 h -7.24358 v 8.692292 q 0,2.395197 1.69982,4.095038 1.69984,1.699816 4.09503,1.699816 1.62257,0 2.8395,-0.753327 0.57948,-0.367002 1.66119,-1.410084 0.77265,-0.753327 1.25554,-0.753327 0.59882,0 1.04309,0.444272 0.46359,0.424948 0.46359,1.004435 z"
         style="font-style:normal;font-variant:normal;font-weight:normal;font-stretch:normal;font-size:19.88875198px;line-height:1.25;font-family:Monofur;-inkscape-font-specification:Monofur;letter-spacing:0px;word-spacing:0px;fill:#000000;fill-opacity:1;stroke:none;stroke-width:1.1589725"
         id="path55"
         inkscape:connector-curvature="0" />
      <g
         transform="translate(0,1.161473)"
         id="g166">
        <path
           inkscape:connector-curvature="0"
           id="path31"
           style="font-style:normal;font-variant:normal;font-weight:normal;font-stretch:normal;font-size:19.88875198px;line-height:1.25;font-family:Monofur;-inkscape-font-specification:Monofur;letter-spacing:0px;word-spacing:0px;fill:#b3b3b3;fill-opacity:1;stroke:none;stroke-width:1.1589725"
           d="m 292.1158,61.730423 q 0,4.017768 -2.54974,7.011799 -2.66563,3.129224 -6.62545,3.129224 -3.65077,0 -6.27777,-2.742899 v 9.986484 q 0,1.448707 -1.44872,1.448707 -1.44871,0 -1.44871,-1.448707 v -26.0769 q 0,-1.448707 1.44871,-1.448707 1.06239,0 1.33282,0.927166 0.1159,0.405648 0.1159,1.815733 2.627,-2.742899 6.27777,-2.742899 3.95982,0 6.62545,3.129224 2.54974,2.994008 2.54974,7.011775 z m -2.89742,0 q 0,-2.820168 -1.69984,-4.944933 -1.83503,-2.298628 -4.57793,-2.298628 -2.7429,0 -4.57794,2.298628 -1.69983,2.124765 -1.69983,4.944933 0,2.820169 1.69983,4.944957 1.83504,2.298628 4.57794,2.298628 2.7429,0 4.57793,-2.298628 1.69984,-2.124788 1.69984,-4.944957 z" />
        <path
           inkscape:connector-curvature="0"
           id="path57"
           style="font-style:normal;font-variant:normal;font-weight:normal;font-stretch:normal;font-size:19.88875198px;line-height:1.25;font-family:Monofur;-inkscape-font-specification:Monofur;letter-spacing:0px;word-spacing:0px;fill:#000000;fill-opacity:1;stroke:none;stroke-width:1.1589725"
           d="m 591.51704,53.038131 v 18.833315 q 0,3.592819 -2.54973,6.142556 -2.54974,2.549736 -6.14256,2.549736 -2.2793,0 -4.32682,-1.158975 -2.12479,-1.197599 -3.18717,-3.148548 -0.21258,-0.424948 -0.21258,-0.77265 0,-0.579488 0.46359,-1.004436 0.4636,-0.424948 1.04309,-0.424948 0.65673,0 1.21692,0.734003 2.16341,2.878116 5.00288,2.878116 2.39522,0 4.09504,-1.699817 1.69984,-1.69984 1.69984,-4.095037 v -2.221381 q -2.4725,2.221381 -5.79488,2.221381 -3.5928,0 -6.14256,-2.549736 -2.54973,-2.54976 -2.54973,-6.142556 V 53.038131 q 0,-1.448707 1.44873,-1.448707 1.4487,0 1.4487,1.448707 v 10.141023 q 0,2.395197 1.69982,4.095037 1.69984,1.699817 4.09504,1.699817 2.39522,0 4.09504,-1.699817 1.69984,-1.69984 1.69984,-4.075737 V 53.038131 q 0,-1.448707 1.4487,-1.448707 1.44871,0 1.44871,1.448707 z" />
      </g>
    </g>
  </g>
</svg>
