<?xml version="1.0" encoding="UTF-8" standalone="no"?>
<!-- Created with Inkscape (http://www.inkscape.org/) -->

<svg
   xmlns:dc="http://purl.org/dc/elements/1.1/"
   xmlns:cc="http://creativecommons.org/ns#"
   xmlns:rdf="http://www.w3.org/1999/02/22-rdf-syntax-ns#"
   xmlns:svg="http://www.w3.org/2000/svg"
   xmlns="http://www.w3.org/2000/svg"
   xmlns:sodipodi="http://sodipodi.sourceforge.net/DTD/sodipodi-0.dtd"
   xmlns:inkscape="http://www.inkscape.org/namespaces/inkscape"
   width="78.501671mm"
   height="78.502182mm"
   viewBox="0 0 78.501671 78.502182"
   version="1.1"
   id="svg8"
   inkscape:version="0.92.4 (unknown)"
   sodipodi:docname="authority.csv.svg">
  <defs
     id="defs2" />
  <sodipodi:namedview
     id="base"
     pagecolor="#ffffff"
     bordercolor="#666666"
     borderopacity="1.0"
     inkscape:pageopacity="0.0"
     inkscape:pageshadow="2"
     inkscape:zoom="0.7"
     inkscape:cx="-222.47717"
     inkscape:cy="-68.877408"
     inkscape:document-units="mm"
     inkscape:current-layer="layer1"
     showgrid="false"
     fit-margin-top="0"
     fit-margin-left="0"
     fit-margin-right="0"
     fit-margin-bottom="0"
     inkscape:window-width="1920"
     inkscape:window-height="1018"
     inkscape:window-x="0"
     inkscape:window-y="34"
     inkscape:window-maximized="1" />
  <metadata
     id="metadata5">
    <rdf:RDF>
      <cc:Work
         rdf:about="">
        <dc:format>image/svg+xml</dc:format>
        <dc:type
           rdf:resource="http://purl.org/dc/dcmitype/StillImage" />
        <dc:title />
      </cc:Work>
    </rdf:RDF>
  </metadata>
  <g
     inkscape:label="Layer 1"
     inkscape:groupmode="layer"
     id="layer1"
     transform="translate(-109.99114,-19.304321)">
    <path
       style="fill:#d35f5f;stroke-width:0.30193076"
       d="m 149.24198,19.304321 a 39.250998,39.250998 0 0 0 -23.87761,8.13232 h 9.11365 l 22.29838,59.064093 h 3.53518 c 1.08774,0 1.86753,0.21758 2.33888,0.652675 0.47135,0.398832 0.70693,0.94253 0.70693,1.631426 0,0.652639 -0.23558,1.196329 -0.70693,1.631423 -0.47135,0.435094 -1.25114,0.652674 -2.33888,0.652674 h -17.02273 c -1.12399,0 -1.92178,-0.21758 -2.39313,-0.652674 -0.47135,-0.435094 -0.70694,-0.978784 -0.70694,-1.631423 0,-0.688896 0.23559,-1.232594 0.70694,-1.631426 0.47135,-0.435095 1.26914,-0.652675 2.39313,-0.652675 h 8.7018 l -6.2544,-16.696655 h -30.02143 l -1.98024,5.379516 a 39.250998,39.250998 0 0 0 35.5074,22.622909 39.250998,39.250998 0 0 0 39.25083,-39.250833 39.250998,39.250998 0 0 0 -39.25083,-39.25135 z"
       id="path54"
       inkscape:connector-curvature="0" />
    <path
       style="fill:#a02c2c;stroke-width:0.30193076"
       d="m 120.39878,32.005355 a 39.250998,39.250998 0 0 0 -10.40764,26.550316 39.250998,39.250998 0 0 0 1.36271,10.198343 l 13.6064,-36.748659 z"
       id="path52"
       inkscape:connector-curvature="0" />
    <path
       style="fill:#c83737;stroke-width:0.30193076"
       d="m 129.69227,32.005355 -12.23698,33.230013 h 26.5405 L 131.37795,32.005355 Z"
       id="path22"
       inkscape:connector-curvature="0" />
    <path
       inkscape:connector-curvature="0"
       id="path48"
       style="font-style:normal;font-variant:normal;font-weight:normal;font-stretch:normal;font-size:10.58333302px;line-height:1.25;font-family:'Courier New';-inkscape-font-specification:'Courier New';letter-spacing:0px;word-spacing:0px;fill:#501616;fill-opacity:1;stroke:none;stroke-width:1.43903923"
       d="m 162.46385,48.741847 v -8.0665 q 0,-0.87129 0.33727,-1.23667 0.33726,-0.36538 0.87129,-0.36538 0.50593,0 0.84319,0.36538 0.33726,0.36539 0.33726,1.23667 v 8.0665 l 7.673,-2.50146 q 0.53405,-0.16866 0.81509,-0.16866 0.44968,0 0.78697,0.36538 0.33727,0.33727 0.33727,0.81508 0,0.42157 -0.25297,0.73076 -0.22484,0.30915 -0.95561,0.53405 l -7.67301,2.50146 4.74996,6.52064 q 0.44969,0.64645 0.44969,1.01183 0,0.50592 -0.36539,0.87129 -0.33726,0.33726 -0.81508,0.33726 -0.61834,0 -1.20856,-0.81508 l -4.74996,-6.54875 -4.74996,6.54875 q -0.59022,0.81508 -1.18046,0.81508 -0.50593,0 -0.87129,-0.33726 -0.33727,-0.36539 -0.33727,-0.87129 0,-0.36539 0.47781,-1.01183 l 4.74995,-6.52064 -7.70111,-2.52957 q -0.70266,-0.22484 -0.95561,-0.50592 -0.22485,-0.30915 -0.22485,-0.73077 0,-0.4778 0.33727,-0.81507 0.33726,-0.36539 0.75886,-0.36539 0.30915,0 0.8432,0.16866 z" />
  </g>
</svg>
