<?xml version="1.0" encoding="UTF-8" standalone="no"?>
<!-- Created with Inkscape (http://www.inkscape.org/) -->

<svg
   xmlns:dc="http://purl.org/dc/elements/1.1/"
   xmlns:cc="http://creativecommons.org/ns#"
   xmlns:rdf="http://www.w3.org/1999/02/22-rdf-syntax-ns#"
   xmlns:svg="http://www.w3.org/2000/svg"
   xmlns="http://www.w3.org/2000/svg"
   xmlns:sodipodi="http://sodipodi.sourceforge.net/DTD/sodipodi-0.dtd"
   xmlns:inkscape="http://www.inkscape.org/namespaces/inkscape"
   width="106.74318mm"
   height="67.733002mm"
   viewBox="0 0 106.74318 67.733003"
   version="1.1"
   id="svg8"
   inkscape:version="0.92.4 (unknown)"
   sodipodi:docname="logo.svg">
  <defs
     id="defs2" />
  <sodipodi:namedview
     id="base"
     pagecolor="#ffffff"
     bordercolor="#666666"
     borderopacity="1.0"
     inkscape:pageopacity="0.0"
     inkscape:pageshadow="2"
     inkscape:zoom="0.7"
     inkscape:cx="73.729217"
     inkscape:cy="89.910415"
     inkscape:document-units="mm"
     inkscape:current-layer="layer1"
     showgrid="false"
     fit-margin-top="0"
     fit-margin-left="0"
     fit-margin-right="0"
     fit-margin-bottom="0"
     inkscape:window-width="1920"
     inkscape:window-height="1018"
     inkscape:window-x="0"
     inkscape:window-y="34"
     inkscape:window-maximized="1" />
  <metadata
     id="metadata5">
    <rdf:RDF>
      <cc:Work
         rdf:about="">
        <dc:format>image/svg+xml</dc:format>
        <dc:type
           rdf:resource="http://purl.org/dc/dcmitype/StillImage" />
        <dc:title></dc:title>
      </cc:Work>
    </rdf:RDF>
  </metadata>
  <g
     inkscape:label="Layer 1"
     inkscape:groupmode="layer"
     id="layer1"
     transform="translate(-66.960641,-57.53403)">
    <g
       id="g628"
       transform="matrix(0.63921544,0,0,0.63921544,24.158365,45.19441)">
      <path
         inkscape:connector-curvature="0"
         id="path54"
         d="m 149.24198,19.304321 a 39.250998,39.250998 0 0 0 -23.87761,8.13232 h 9.11365 l 22.29838,59.064093 h 3.53518 c 1.08774,0 1.86753,0.21758 2.33888,0.652675 0.47135,0.398832 0.70693,0.94253 0.70693,1.631426 0,0.652639 -0.23558,1.196329 -0.70693,1.631423 -0.47135,0.435094 -1.25114,0.652674 -2.33888,0.652674 h -17.02273 c -1.12399,0 -1.92178,-0.21758 -2.39313,-0.652674 -0.47135,-0.435094 -0.70694,-0.978784 -0.70694,-1.631423 0,-0.688896 0.23559,-1.232594 0.70694,-1.631426 0.47135,-0.435095 1.26914,-0.652675 2.39313,-0.652675 h 8.7018 l -6.2544,-16.696655 h -30.02143 l -1.98024,5.379516 a 39.250998,39.250998 0 0 0 35.5074,22.622909 39.250998,39.250998 0 0 0 39.25083,-39.250833 39.250998,39.250998 0 0 0 -39.25083,-39.25135 z"
         style="fill:#d35f5f;stroke-width:0.30193076" />
      <path
         inkscape:connector-curvature="0"
         id="path52"
         d="m 120.39878,32.005355 a 39.250998,39.250998 0 0 0 -10.40764,26.550316 39.250998,39.250998 0 0 0 1.36271,10.198343 l 13.6064,-36.748659 z"
         style="fill:#a02c2c;stroke-width:0.30193076" />
      <path
         inkscape:connector-curvature="0"
         id="path22"
         d="m 129.69227,32.005355 -12.23698,33.230013 h 26.5405 L 131.37795,32.005355 Z"
         style="fill:#c83737;stroke-width:0.30193076" />
      <path
         d="m 162.46385,48.741847 v -8.0665 q 0,-0.87129 0.33727,-1.23667 0.33726,-0.36538 0.87129,-0.36538 0.50593,0 0.84319,0.36538 0.33726,0.36539 0.33726,1.23667 v 8.0665 l 7.673,-2.50146 q 0.53405,-0.16866 0.81509,-0.16866 0.44968,0 0.78697,0.36538 0.33727,0.33727 0.33727,0.81508 0,0.42157 -0.25297,0.73076 -0.22484,0.30915 -0.95561,0.53405 l -7.67301,2.50146 4.74996,6.52064 q 0.44969,0.64645 0.44969,1.01183 0,0.50592 -0.36539,0.87129 -0.33726,0.33726 -0.81508,0.33726 -0.61834,0 -1.20856,-0.81508 l -4.74996,-6.54875 -4.74996,6.54875 q -0.59022,0.81508 -1.18046,0.81508 -0.50593,0 -0.87129,-0.33726 -0.33727,-0.36539 -0.33727,-0.87129 0,-0.36539 0.47781,-1.01183 l 4.74995,-6.52064 -7.70111,-2.52957 q -0.70266,-0.22484 -0.95561,-0.50592 -0.22485,-0.30915 -0.22485,-0.73077 0,-0.4778 0.33727,-0.81507 0.33726,-0.36539 0.75886,-0.36539 0.30915,0 0.8432,0.16866 z"
         style="font-style:normal;font-variant:normal;font-weight:normal;font-stretch:normal;font-size:10.58333302px;line-height:1.25;font-family:'Courier New';-inkscape-font-specification:'Courier New';letter-spacing:0px;word-spacing:0px;fill:#501616;fill-opacity:1;stroke:none;stroke-width:1.43903923"
         id="path48"
         inkscape:connector-curvature="0" />
      <path
         d="m 75.670257,117.80875 q 0,1.68225 -1.50823,2.75956 -1.359065,0.96958 -3.107618,0.96958 -1.135316,0 -2.204337,-0.4475 -1.168464,-0.49722 -1.756839,-1.35906 -0.132592,-0.19889 -0.132592,-0.38121 0,-0.2486 0.190601,-0.43092 0.198887,-0.1906 0.455783,-0.1906 0.240323,0 0.480645,0.2569 0.116018,0.14088 0.364627,0.39777 1.011012,0.91157 2.602112,0.91157 1.218186,0 2.220911,-0.62152 1.15189,-0.72097 1.15189,-1.86457 0,-1.14361 -1.15189,-1.86457 -1.002725,-0.62153 -2.220911,-0.62153 -1.450221,0 -2.577251,-0.81212 -1.243047,-0.895 -1.243047,-2.29549 0,-1.4005 1.243047,-2.2955 1.12703,-0.81212 2.577251,-0.81212 0.936429,0 1.806562,0.37291 0.961289,0.40606 1.450221,1.11046 0.140879,0.1906 0.140879,0.3812 0,0.24861 -0.198888,0.43921 -0.198887,0.18231 -0.447497,0.18231 -0.232035,0 -0.488931,-0.25689 -0.969577,-0.98616 -2.262346,-0.98616 -0.919855,0 -1.682257,0.46408 -0.894994,0.53865 -0.894994,1.4005 0,0.86184 0.894994,1.40049 0.762402,0.46408 1.682257,0.46408 1.748553,0 3.107618,0.96957 1.50823,1.07731 1.50823,2.75957 z"
         style="font-style:normal;font-variant:normal;font-weight:normal;font-stretch:normal;font-size:19.88875198px;line-height:1.25;font-family:Monofur;-inkscape-font-specification:Monofur;letter-spacing:0px;word-spacing:0px;fill:#b3b3b3;fill-opacity:1;stroke:none;stroke-width:0.49721879"
         id="path25"
         inkscape:connector-curvature="0" />
      <path
         d="m 85.62292,120.89979 q 0,0.24861 -0.190601,0.4475 -0.182313,0.19888 -0.430923,0.19888 -0.1906,0 -0.364627,-0.11601 l -5.303667,-3.67942 q -0.306618,-0.20718 -0.348053,-0.4475 v 3.61312 q 0,0.62153 -0.621524,0.62153 -0.621523,0 -0.621523,-0.62153 v -11.18742 q 0,-0.62152 0.621523,-0.62152 0.621524,0 0.621524,0.62152 v 7.34227 q 0.04143,-0.24033 0.348053,-0.4475 l 5.303667,-3.67942 q 0.174027,-0.11602 0.364627,-0.11602 0.24861,0 0.430923,0.19889 0.190601,0.19889 0.190601,0.4475 0,0.30661 -0.27347,0.49721 l -4.648996,3.21535 4.648996,3.21535 q 0.27347,0.1906 0.27347,0.49722 z"
         style="font-style:normal;font-variant:normal;font-weight:normal;font-stretch:normal;font-size:19.88875198px;line-height:1.25;font-family:Monofur;-inkscape-font-specification:Monofur;letter-spacing:0px;word-spacing:0px;fill:#b3b3b3;fill-opacity:1;stroke:none;stroke-width:0.49721879"
         id="path27"
         inkscape:connector-curvature="0" />
      <path
         d="m 95.567296,119.04351 q 0,0.15745 -0.09944,0.33976 -0.571801,0.99444 -1.715405,1.58282 -1.085594,0.5718 -2.278919,0.5718 -1.864571,0 -3.215348,-1.23476 -1.4005,-1.26791 -1.4005,-3.11591 0,-1.84799 1.4005,-3.1159 1.350777,-1.23476 3.215348,-1.23476 0.679532,0 1.417073,0.24032 0.828698,0.27347 1.649109,0.87013 1.019299,0.74583 1.019299,1.41708 0,0.33148 -0.323192,0.5055 l -6.281531,3.38109 q 1.019298,1.04416 2.519242,1.04416 1.599387,0 2.585538,-1.11045 0.116017,-0.14917 0.348053,-0.45579 0.240322,-0.30662 0.513792,-0.30662 0.24861,0 0.447497,0.18232 0.198888,0.18231 0.198888,0.43921 z m -1.566239,-3.91974 q -1.011012,-1.04416 -2.527529,-1.04416 -1.342491,0 -2.336929,0.87013 -1.035872,0.91157 -1.035872,2.23748 0,0.53037 0.182314,1.01101 z"
         style="font-style:normal;font-variant:normal;font-weight:normal;font-stretch:normal;font-size:19.88875198px;line-height:1.25;font-family:Monofur;-inkscape-font-specification:Monofur;letter-spacing:0px;word-spacing:0px;fill:#b3b3b3;fill-opacity:1;stroke:none;stroke-width:0.49721879"
         id="path29"
         inkscape:connector-curvature="0" />
      <path
         d="m 105.50338,117.18722 q 0,1.72369 -1.09388,3.00818 -1.1436,1.34249 -2.84243,1.34249 -1.56624,0 -2.693269,-1.17675 v 4.28437 q 0,0.62152 -0.621524,0.62152 -0.621523,0 -0.621523,-0.62152 v -11.18743 q 0,-0.62152 0.621523,-0.62152 0.455784,0 0.571802,0.39777 0.04972,0.17403 0.04972,0.77898 1.127031,-1.17675 2.693271,-1.17675 1.69883,0 2.84243,1.34249 1.09388,1.28448 1.09388,3.00817 z m -1.24304,0 q 0,-1.2099 -0.72926,-2.12146 -0.78726,-0.98615 -1.96401,-0.98615 -1.17675,0 -1.964015,0.98615 -0.729254,0.91156 -0.729254,2.12146 0,1.2099 0.729254,2.12147 0.787265,0.98615 1.964015,0.98615 1.17675,0 1.96401,-0.98615 0.72926,-0.91157 0.72926,-2.12147 z"
         style="font-style:normal;font-variant:normal;font-weight:normal;font-stretch:normal;font-size:19.88875198px;line-height:1.25;font-family:Monofur;-inkscape-font-specification:Monofur;letter-spacing:0px;word-spacing:0px;fill:#b3b3b3;fill-opacity:1;stroke:none;stroke-width:0.49721879"
         id="path31"
         inkscape:connector-curvature="0" />
      <path
         d="m 115.45605,119.66503 q 0,0.17403 -0.13259,0.3812 -0.43921,0.67125 -1.30935,1.09388 -0.82869,0.39778 -1.67397,0.39778 -1.54137,0 -2.63526,-1.09388 -1.09388,-1.09389 -1.09388,-2.63526 v -3.72914 h -1.24304 q -0.62153,0 -0.62153,-0.62153 0,-0.62152 0.62153,-0.62152 h 1.24304 v -3.10762 q 0,-0.62152 0.62153,-0.62152 0.62152,0 0.62152,0.62152 v 3.10762 h 3.10762 q 0.62152,0 0.62152,0.62152 0,0.62153 -0.62152,0.62153 h -3.10762 v 3.72914 q 0,1.02758 0.72925,1.75684 0.72926,0.72925 1.75684,0.72925 0.69611,0 1.21819,-0.32319 0.24861,-0.15745 0.71268,-0.60495 0.33148,-0.32319 0.53865,-0.32319 0.2569,0 0.4475,0.1906 0.19889,0.18231 0.19889,0.43092 z"
         style="font-style:normal;font-variant:normal;font-weight:normal;font-stretch:normal;font-size:19.88875198px;line-height:1.25;font-family:Monofur;-inkscape-font-specification:Monofur;letter-spacing:0px;word-spacing:0px;fill:#b3b3b3;fill-opacity:1;stroke:none;stroke-width:0.49721879"
         id="path33"
         inkscape:connector-curvature="0" />
      <path
         d="m 121.98619,110.05213 q 0,0.38949 -0.28176,0.65467 -0.27347,0.26519 -0.66296,0.26519 -0.38949,0 -0.67124,-0.26519 -0.27348,-0.26518 -0.27348,-0.65467 0,-0.38948 0.27348,-0.66296 0.28175,-0.28175 0.67124,-0.28175 0.38949,0 0.66296,0.28175 0.28176,0.27348 0.28176,0.66296 z m 2.1629,10.86423 q 0,0.62153 -0.62153,0.62153 h -2.48609 q -0.62152,0 -0.62152,-0.62153 v -6.83675 h -1.86457 q -0.62153,0 -0.62153,-0.62153 0,-0.62152 0.62153,-0.62152 h 2.49438 q 0.61323,0 0.61323,0.62152 v 6.83676 h 1.86457 q 0.62153,0 0.62153,0.62152 z"
         style="font-style:normal;font-variant:normal;font-weight:normal;font-stretch:normal;font-size:19.88875198px;line-height:1.25;font-family:Monofur;-inkscape-font-specification:Monofur;letter-spacing:0px;word-spacing:0px;fill:#b3b3b3;fill-opacity:1;stroke:none;stroke-width:0.49721879"
         id="path35"
         inkscape:connector-curvature="0" />
      <path
         d="m 135.3448,114.53539 q 0,0.2569 -0.1906,0.45578 -0.1906,0.1906 -0.43921,0.1906 -0.17403,0 -0.40606,-0.15745 -1.33421,-0.94471 -2.68498,-0.94471 -1.42536,0 -2.53582,0.82869 -1.2099,0.90328 -1.2099,2.27892 0,1.37564 1.21819,2.27892 1.10217,0.8287 2.52753,0.8287 1.34249,0 2.68498,-0.93643 0.22375,-0.15745 0.39777,-0.15745 0.2569,0 0.4475,0.19889 0.1906,0.1906 0.1906,0.43921 0,0.24032 -0.23204,0.46407 -0.58008,0.58009 -1.62424,0.91985 -0.95301,0.31491 -1.86457,0.31491 -1.94744,0 -3.41424,-1.18504 -1.57453,-1.25962 -1.57453,-3.16563 0,-1.906 1.57453,-3.16562 1.4668,-1.18504 3.41424,-1.18504 0.91156,0 1.86457,0.3149 1.05244,0.34806 1.63253,0.92815 0.22375,0.22374 0.22375,0.45578 z"
         style="font-style:normal;font-variant:normal;font-weight:normal;font-stretch:normal;font-size:19.88875198px;line-height:1.25;font-family:Monofur;-inkscape-font-specification:Monofur;letter-spacing:0px;word-spacing:0px;fill:#b3b3b3;fill-opacity:1;stroke:none;stroke-width:0.49721879"
         id="path37"
         inkscape:connector-curvature="0" />
      <path
         d="m 141.87494,116.25079 q 0,0.38949 -0.28176,0.67125 -0.27347,0.27347 -0.66295,0.27347 -0.38949,0 -0.67125,-0.27347 -0.27347,-0.28176 -0.27347,-0.67125 0,-0.3812 0.27347,-0.64638 0.28176,-0.27347 0.67125,-0.27347 0.38948,0 0.66295,0.27347 0.28176,0.26518 0.28176,0.64638 z"
         style="font-style:normal;font-variant:normal;font-weight:normal;font-stretch:normal;font-size:19.88875198px;line-height:1.25;font-family:Monofur;-inkscape-font-specification:Monofur;letter-spacing:0px;word-spacing:0px;fill:#000000;fill-opacity:1;stroke:none;stroke-width:0.49721879"
         id="path39"
         inkscape:connector-curvature="0" />
      <path
         d="m 155.23355,120.94123 q 0,0.59666 -0.64638,0.59666 -0.43093,0 -0.5718,-0.42264 l -1.10217,-3.3065 h -4.0772 l -1.10217,3.3065 q -0.14087,0.42264 -0.5718,0.42264 -0.64638,0 -0.64638,-0.59666 0,-0.10774 0.0414,-0.22375 l 3.696,-11.08798 q 0.17402,-0.52208 0.62152,-0.52208 0.4475,0 0.62152,0.52208 l 3.696,11.08798 q 0.0414,0.11601 0.0414,0.22375 z m -2.7347,-4.37553 -1.62425,-4.87274 -1.62425,4.87274 z"
         style="font-style:normal;font-variant:normal;font-weight:normal;font-stretch:normal;font-size:19.88875198px;line-height:1.25;font-family:Monofur;-inkscape-font-specification:Monofur;letter-spacing:0px;word-spacing:0px;fill:#a02c2c;fill-opacity:1;stroke:none;stroke-width:0.49721879"
         id="path41"
         inkscape:connector-curvature="0" />
      <path
         d="m 164.75529,117.60157 q 0,1.63254 -1.15189,2.78443 -1.15189,1.15189 -2.78443,1.15189 -1.63253,0 -2.78442,-1.15189 -1.15189,-1.15189 -1.15189,-2.78443 v -4.14349 q 0,-0.62152 0.62152,-0.62152 0.62153,0 0.62153,0.62152 v 4.14349 q 0,1.11046 0.78726,1.90601 0.79555,0.78726 1.906,0.78726 1.11046,0 1.89772,-0.78726 0.79555,-0.79555 0.79555,-1.90601 v -4.14349 q 0,-0.62152 0.62153,-0.62152 0.62152,0 0.62152,0.62152 z"
         style="font-style:normal;font-variant:normal;font-weight:normal;font-stretch:normal;font-size:19.88875198px;line-height:1.25;font-family:Monofur;-inkscape-font-specification:Monofur;letter-spacing:0px;word-spacing:0px;fill:#000000;fill-opacity:1;stroke:none;stroke-width:0.49721879"
         id="path43"
         inkscape:connector-curvature="0" />
      <path
         d="m 175.1223,119.66503 q 0,0.17403 -0.13259,0.3812 -0.43921,0.67125 -1.30934,1.09388 -0.8287,0.39778 -1.67397,0.39778 -1.54138,0 -2.63526,-1.09388 -1.09389,-1.09389 -1.09389,-2.63526 v -3.72914 h -1.24304 q -0.62153,0 -0.62153,-0.62153 0,-0.62152 0.62153,-0.62152 h 1.24304 v -3.10762 q 0,-0.62152 0.62153,-0.62152 0.62152,0 0.62152,0.62152 v 3.10762 h 3.10762 q 0.62152,0 0.62152,0.62152 0,0.62153 -0.62152,0.62153 h -3.10762 v 3.72914 q 0,1.02758 0.72926,1.75684 0.72925,0.72925 1.75684,0.72925 0.6961,0 1.21818,-0.32319 0.24861,-0.15745 0.71268,-0.60495 0.33148,-0.32319 0.53866,-0.32319 0.25689,0 0.44749,0.1906 0.19889,0.18231 0.19889,0.43092 z"
         style="font-style:normal;font-variant:normal;font-weight:normal;font-stretch:normal;font-size:19.88875198px;line-height:1.25;font-family:Monofur;-inkscape-font-specification:Monofur;letter-spacing:0px;word-spacing:0px;fill:#000000;fill-opacity:1;stroke:none;stroke-width:0.49721879"
         id="path45"
         inkscape:connector-curvature="0" />
      <path
         d="m 184.64405,120.91636 q 0,0.62153 -0.62153,0.62153 -0.62152,0 -0.62152,-0.62153 v -4.35066 q 0,-1.02759 -0.72926,-1.75684 -0.72925,-0.72925 -1.75684,-0.72925 -1.02758,0 -1.75683,0.72925 -0.72926,0.72925 -0.72926,1.75684 v 4.35066 q 0,0.62153 -0.62152,0.62153 -0.62153,0 -0.62153,-0.62153 v -11.18742 q 0,-0.62152 0.62153,-0.62152 0.62152,0 0.62152,0.62152 v 4.06062 q 1.06073,-0.953 2.48609,-0.953 1.54138,0 2.63526,1.09388 1.09389,1.09388 1.09389,2.63526 z"
         style="font-style:normal;font-variant:normal;font-weight:normal;font-stretch:normal;font-size:19.88875198px;line-height:1.25;font-family:Monofur;-inkscape-font-specification:Monofur;letter-spacing:0px;word-spacing:0px;fill:#000000;fill-opacity:1;stroke:none;stroke-width:0.49721879"
         id="path47"
         inkscape:connector-curvature="0" />
      <path
         d="m 195.00277,117.18722 q 0,1.79828 -1.2762,3.07447 -1.27619,1.2762 -3.07447,1.2762 -1.79827,0 -3.07447,-1.2762 -1.27619,-1.27619 -1.27619,-3.07447 0,-1.79827 1.27619,-3.07447 1.2762,-1.27619 3.07447,-1.27619 1.79828,0 3.07447,1.27619 1.2762,1.2762 1.2762,3.07447 z m -1.24305,0 q 0,-1.28448 -0.91157,-2.19605 -0.91156,-0.91156 -2.19605,-0.91156 -1.28448,0 -2.19605,0.91156 -0.91156,0.91157 -0.91156,2.19605 0,1.28448 0.91156,2.19605 0.91157,0.91157 2.19605,0.91157 1.28449,0 2.19605,-0.91157 0.91157,-0.91157 0.91157,-2.19605 z"
         style="font-style:normal;font-variant:normal;font-weight:normal;font-stretch:normal;font-size:19.88875198px;line-height:1.25;font-family:Monofur;-inkscape-font-specification:Monofur;letter-spacing:0px;word-spacing:0px;fill:#000000;fill-opacity:1;stroke:none;stroke-width:0.49721879"
         id="path49"
         inkscape:connector-curvature="0" />
      <path
         d="m 204.95543,114.84201 q 0,0.25689 -0.19889,0.44749 -0.1906,0.18232 -0.44749,0.18232 -0.23204,0 -0.46408,-0.24032 -1.1436,-1.15189 -2.41979,-1.15189 -1.28449,0 -2.19605,0.91156 -0.91157,0.91157 -0.91157,2.19605 v 3.72914 q 0,0.62153 -0.62152,0.62153 -0.62153,0 -0.62153,-0.62153 v -7.45828 q 0,-0.62152 0.62153,-0.62152 0.48064,0 0.59666,0.46407 0.0332,0.14917 0.0249,0.84527 1.27619,-1.30934 3.10762,-1.30934 0.94471,0 1.88114,0.43092 0.98615,0.4475 1.49994,1.18504 0.14917,0.21546 0.14917,0.38949 z"
         style="font-style:normal;font-variant:normal;font-weight:normal;font-stretch:normal;font-size:19.88875198px;line-height:1.25;font-family:Monofur;-inkscape-font-specification:Monofur;letter-spacing:0px;word-spacing:0px;fill:#000000;fill-opacity:1;stroke:none;stroke-width:0.49721879"
         id="path51"
         inkscape:connector-curvature="0" />
      <path
         d="m 211.48558,110.05213 q 0,0.38949 -0.28176,0.65467 -0.27347,0.26519 -0.66296,0.26519 -0.38949,0 -0.67125,-0.26519 -0.27347,-0.26518 -0.27347,-0.65467 0,-0.38948 0.27347,-0.66296 0.28176,-0.28175 0.67125,-0.28175 0.38949,0 0.66296,0.28175 0.28176,0.27348 0.28176,0.66296 z m 2.1629,10.86423 q 0,0.62153 -0.62153,0.62153 h -2.48609 q -0.62152,0 -0.62152,-0.62153 v -6.83675 h -1.86457 q -0.62153,0 -0.62153,-0.62153 0,-0.62152 0.62153,-0.62152 h 2.49438 q 0.61323,0 0.61323,0.62152 v 6.83676 h 1.86457 q 0.62153,0 0.62153,0.62152 z"
         style="font-style:normal;font-variant:normal;font-weight:normal;font-stretch:normal;font-size:19.88875198px;line-height:1.25;font-family:Monofur;-inkscape-font-specification:Monofur;letter-spacing:0px;word-spacing:0px;fill:#000000;fill-opacity:1;stroke:none;stroke-width:0.49721879"
         id="path53"
         inkscape:connector-curvature="0" />
      <path
         d="m 224.84418,119.66503 q 0,0.17403 -0.13259,0.3812 -0.43921,0.67125 -1.30935,1.09388 -0.82869,0.39778 -1.67397,0.39778 -1.54137,0 -2.63526,-1.09388 -1.09388,-1.09389 -1.09388,-2.63526 v -3.72914 h -1.24304 q -0.62153,0 -0.62153,-0.62153 0,-0.62152 0.62153,-0.62152 h 1.24304 v -3.10762 q 0,-0.62152 0.62153,-0.62152 0.62152,0 0.62152,0.62152 v 3.10762 h 3.10762 q 0.62152,0 0.62152,0.62152 0,0.62153 -0.62152,0.62153 h -3.10762 v 3.72914 q 0,1.02758 0.72925,1.75684 0.72926,0.72925 1.75684,0.72925 0.69611,0 1.21819,-0.32319 0.24861,-0.15745 0.71268,-0.60495 0.33148,-0.32319 0.53865,-0.32319 0.2569,0 0.4475,0.1906 0.19889,0.18231 0.19889,0.43092 z"
         style="font-style:normal;font-variant:normal;font-weight:normal;font-stretch:normal;font-size:19.88875198px;line-height:1.25;font-family:Monofur;-inkscape-font-specification:Monofur;letter-spacing:0px;word-spacing:0px;fill:#000000;fill-opacity:1;stroke:none;stroke-width:0.49721879"
         id="path55"
         inkscape:connector-curvature="0" />
      <path
         d="m 233.95157,113.45808 v 8.07981 q 0,1.54138 -1.09388,2.63526 -1.09388,1.09388 -2.63526,1.09388 -0.97786,0 -1.85628,-0.49722 -0.91157,-0.51379 -1.36735,-1.35078 -0.0912,-0.18231 -0.0912,-0.33148 0,-0.24861 0.19889,-0.43092 0.19889,-0.18231 0.4475,-0.18231 0.28175,0 0.52208,0.3149 0.92814,1.23476 2.14632,1.23476 1.02759,0 1.75684,-0.72925 0.72926,-0.72926 0.72926,-1.75684 v -0.95301 q -1.06074,0.95301 -2.4861,0.95301 -1.54137,0 -2.63526,-1.09388 -1.09388,-1.09389 -1.09388,-2.63526 v -4.35067 q 0,-0.62152 0.62153,-0.62152 0.62152,0 0.62152,0.62152 v 4.35067 q 0,1.02758 0.72925,1.75684 0.72926,0.72925 1.75684,0.72925 1.02759,0 1.75684,-0.72925 0.72926,-0.72926 0.72926,-1.74856 v -4.35895 q 0,-0.62152 0.62152,-0.62152 0.62152,0 0.62152,0.62152 z"
         style="font-style:normal;font-variant:normal;font-weight:normal;font-stretch:normal;font-size:19.88875198px;line-height:1.25;font-family:Monofur;-inkscape-font-specification:Monofur;letter-spacing:0px;word-spacing:0px;fill:#000000;fill-opacity:1;stroke:none;stroke-width:0.49721879"
         id="path57"
         inkscape:connector-curvature="0" />
    </g>
  </g>
</svg>
